<svg id="Capa_1" enable-background="new 0 0 512 512" height="512" viewBox="0 0 512 512" width="512" xmlns="http://www.w3.org/2000/svg"><g><path d="m496.972 169.576c2.217 11.719 3.391 23.802 3.391 36.155 0 107.024-87.07 194.094-194.094 194.094s-194.094-87.07-194.094-194.094 87.07-194.094 194.094-194.094c12.354 0 24.437 1.174 36.155 3.391-27.011-9.717-56.107-15.028-86.424-15.028-141.159 0-256 114.841-256 256s114.841 256 256 256 256-114.841 256-256c0-30.317-5.31-59.413-15.028-86.424z" fill="#fee46f"/><path d="m512 256c0-30.317-5.31-59.413-15.028-86.425 2.217 11.719 3.391 23.802 3.391 36.155 0 107.024-87.07 194.094-194.094 194.094-10.632 0-21.063-.873-31.236-2.526v113.993c132.305-9.769 236.967-120.534 236.967-255.291z" fill="#fed330"/><path d="m275.033 143.026 26.339 53.368 58.895 8.558-42.617 41.541 10.061 58.657-52.678-27.694-52.677 27.694 10.06-58.657-42.617-41.541 58.895-8.558z" fill="#f9b700"/><path d="m360.267 204.952-58.895-8.558-26.339-53.368v134.43l52.678 27.694-10.061-58.657z" fill="#f49d14"/><path d="m417.691.368 26.339 53.368 58.895 8.558-42.617 41.541 10.06 58.657-52.677-27.694-52.677 27.694 10.06-58.657-42.617-41.541 58.895-8.558z" fill="#f9b700"/><path d="m502.925 62.294-58.895-8.558-26.339-53.368v134.43l52.678 27.694-10.061-58.657z" fill="#f49d14"/><path d="m306.269 11.637c12.354 0 24.437 1.174 36.155 3.391-21.306-7.665-43.914-12.574-67.391-14.311v13.446c10.173-1.653 20.604-2.526 31.236-2.526z" fill="#fed330"/></g></svg>