<svg id="Capa_1" enable-background="new 0 0 64 64" height="512" viewBox="0 0 64 64" width="512" xmlns="http://www.w3.org/2000/svg"><path d="m48 52c0-5.523-4.477-10-10-10-.12 0-.237.014-.357.018-3.294-6.983-11.625-9.974-18.608-6.68-4.626 2.182-7.692 6.716-7.992 11.822-4.054-.851-8.03 1.745-8.881 5.799s1.745 8.03 5.799 8.881c.506.106 1.022.16 1.539.16.169 0 .334-.014.5-.025v.025h29v-.05c5.11-.514 9-4.814 9-9.95z" fill="#e0e0e2"/><path d="m60.586 21.7c.027-3.455-2.752-6.277-6.207-6.305-.074 0-.147.009-.221.012-1.985-4.345-7.116-6.259-11.462-4.274-2.965 1.354-4.917 4.26-5.049 7.516-.643-.138-1.309-.135-1.951.007-2.545.602-4.121 3.153-3.519 5.699.497 2.102 2.354 3.602 4.513 3.645.1 0 .207-.009.31-.016v.016h18v-.032c3.193-.349 5.605-3.056 5.586-6.268z" fill="#acabb1"/><path d="m4.966 9.59c.02-2.455 2.027-4.429 4.482-4.41.054 0 .107.006.16.008 1.52-3.123 5.284-4.422 8.407-2.902 2.007.977 3.346 2.945 3.518 5.17.677-.138 1.38-.072 2.019.191.915.368 1.612 1.133 1.895 2.078.524 1.761-.48 3.614-2.241 4.137-.319.095-.65.141-.982.138-.076 0-.15-.006-.224-.011v.011h-13v-.022c-2.273-.208-4.018-2.106-4.034-4.388z" fill="#898890"/><path d="m38.253 41c-3.853-7.321-12.911-10.132-20.232-6.278-4.304 2.265-7.24 6.479-7.874 11.3-.216-.015-.432-.022-.647-.022-4.694 0-8.5 3.806-8.5 8.5s3.806 8.5 8.5 8.5c.107 0 29.939.058 30.063 0 6.028-.757 10.133-6.344 9.376-12.372-.68-5.416-5.229-9.514-10.686-9.628zm.647 19.955c-.068.007-29.284.045-29.4.045-3.59 0-6.5-2.91-6.5-6.5s2.91-6.5 6.5-6.5c.45 0 .898.047 1.338.139.541.111 1.07-.237 1.181-.778.01-.047.016-.094.019-.141.419-7.156 6.559-12.619 13.716-12.2 4.745.278 8.959 3.126 10.984 7.426.169.363.54.589.94.572l.322-.018c4.971-.001 9.001 4.028 9.001 8.999.001 4.623-3.501 8.494-8.101 8.956z"/><path d="m54.771 14.4c-2.531-4.682-8.379-6.425-13.061-3.894-2.662 1.439-4.493 4.044-4.945 7.036-.431-.007-.862.037-1.283.131-2.23.507-3.944 2.295-4.355 4.545-.308 1.693.15 3.436 1.251 4.758 1.066 1.281 2.645 2.022 4.311 2.024.064 0 18.548-.022 18.658-.066 3.996-.587 6.76-4.303 6.173-8.3-.501-3.408-3.312-6.004-6.749-6.234zm.129 12.573c-.049.005-17.937.011-18.017.017-1.141.063-2.245-.419-2.973-1.3-.721-.87-1.018-2.014-.813-3.125.265-1.455 1.372-2.612 2.814-2.94.503-.109 1.025-.109 1.528 0 .54.115 1.071-.229 1.187-.769.011-.05.017-.1.02-.151.169-4.222 3.729-7.507 7.95-7.337 2.88.115 5.45 1.84 6.65 4.46.171.365.543.592.946.576l.182-.011c2.932.058 5.262 2.482 5.204 5.414-.053 2.65-2.051 4.855-4.684 5.168z"/><path d="m8.675 14.946c.105.036.214.054.325.054h13.224c1.375-.002 2.669-.646 3.5-1.741.818-1.091 1.07-2.505.68-3.811-.367-1.242-1.283-2.247-2.485-2.729-.484-.195-.998-.306-1.519-.329-.718-3.358-3.691-5.752-7.124-5.738-2.567.004-4.945 1.349-6.269 3.548-2.977.186-5.239 2.749-5.053 5.726.162 2.591 2.145 4.701 4.721 5.022zm.769-8.766.131.007c.396.01.762-.211.937-.566.893-1.818 2.742-2.97 4.767-2.97 2.762-.021 5.064 2.109 5.259 4.864.033.551.507.971 1.059.938.048-.003.095-.009.141-.019.485-.098.989-.049 1.446.141.626.255 1.105.778 1.302 1.425.219.703.086 1.467-.357 2.055-.449.599-1.156.95-1.905.945 0 0-13.089-.012-13.127-.016-1.874-.169-3.256-1.825-3.087-3.699.16-1.772 1.656-3.122 3.434-3.101z"/><path d="m20 57h-10c-.552 0-1 .448-1 1s.448 1 1 1h10c.552 0 1-.448 1-1s-.448-1-1-1z"/><path d="m24 57h-1c-.552 0-1 .448-1 1s.448 1 1 1h1c.552 0 1-.448 1-1s-.448-1-1-1z"/><path d="m18 12h3c.552 0 1-.448 1-1s-.448-1-1-1h-3c-.552 0-1 .448-1 1s.448 1 1 1z"/><path d="m45 23h-8c-.552 0-1 .448-1 1s.448 1 1 1h8c.552 0 1-.448 1-1s-.448-1-1-1z"/></svg>